<svg height="511pt" viewBox="0 -24 511.9994 511" width="511pt" xmlns="http://www.w3.org/2000/svg"><path d="m438.21875 260.613281c4.144531 0 7.5-3.359375 7.5-7.5v-12.453125c0-4.140625-3.355469-7.5-7.5-7.5s-7.5 3.359375-7.5 7.5v12.453125c0 4.140625 3.359375 7.5 7.5 7.5zm0 0"/><path d="m276.90625 260.613281c4.140625 0 7.5-3.359375 7.5-7.5v-12.453125c0-4.140625-3.359375-7.5-7.5-7.5-4.144531 0-7.5 3.359375-7.5 7.5v12.453125c0 4.140625 3.355469 7.5 7.5 7.5zm0 0"/><path d="m385.074219 259.042969c3.273437-2.539063 3.871093-7.25 1.332031-10.523438-2.539062-3.273437-7.253906-3.867187-10.523438-1.332031-10.789062 8.367188-25.855468 8.367188-36.640624 0-3.273438-2.539062-7.984376-1.945312-10.523438 1.332031-2.539062 3.273438-1.941406 7.984375 1.328125 10.523438 8.101563 6.28125 17.808594 9.421875 27.515625 9.421875s19.414062-3.140625 27.511719-9.421875zm0 0"/><path d="m438.761719 166.359375-16.601563-103.8125c-6.417968-40.117187-44.28125-67.535156-84.394531-61.117187l-275.714844 44.101562c-40.117187 6.414062-67.535156 44.273438-61.121093 84.390625l23.660156 147.90625c3.378906 21.121094 15.746094 39.707031 33.9375 50.992187 1.230468.761719 6.9375 2.691407 10.328125-2.417968 2.285156-3.453125 1.101562-8.144532-2.421875-10.328125-14.488282-8.988281-24.34375-23.792969-27.03125-40.613281l-10.644532-66.550782 70.089844-11.207031c-8.445312 11.984375-13.425781 26.578125-13.425781 42.324219v149.789062c0 40.628906 33.050781 73.679688 73.679687 73.679688h279.21875c40.628907 0 73.679688-33.050782 73.679688-73.679688v-149.789062c0-40.480469-32.8125-73.429688-73.238281-73.667969zm-15.191407-.011719h-128.699218l125.488281-20.070312zm-405.988281-27.316406 331.128907-52.960938c4.089843-.65625 6.878906-4.5 6.222656-8.589843-.652344-4.089844-4.484375-6.882813-8.589844-6.222657l-331.03125 52.945313c-1.472656-14.351563 2.320312-28.558594 10.851562-40.335937 9.191407-12.695313 22.777344-21.046876 38.253907-23.523438l275.71875-44.101562c30.820312-4.929688 59.976562 15.230468 66.574219 45.359374l-29.09375 4.652344c-4.089844.65625-6.875 4.5-6.222657 8.589844.59375 3.691406 3.777344 6.316406 7.398438 6.316406.394531 0 .792969-.03125 1.195312-.09375l29.191407-4.667968 8.808593 55.070312-218.09375 34.878906h-40.792969c-15.640624 0-30.148437 4.914063-42.089843 13.257813l-90.625 14.496093zm479.417969 250.785156c0 32.355469-26.324219 58.679688-58.679688 58.679688h-279.21875c-32.355468 0-58.679687-26.324219-58.679687-58.679688v-149.789062c0-32.355469 26.324219-58.679688 58.679687-58.679688h279.21875c32.355469 0 58.679688 26.324219 58.679688 58.679688zm0 0"/><path d="m160.742188 296.398438h33.710937c15.839844 0 28.726563-12.886719 28.726563-28.726563v-33.714844c0-15.839843-12.886719-28.726562-28.726563-28.726562h-33.710937c-15.839844 0-28.726563 12.886719-28.726563 28.726562v33.714844c0 15.839844 12.886719 28.726563 28.726563 28.726563zm-13.726563-62.441407c0-7.570312 6.15625-13.726562 13.726563-13.726562h33.710937c7.570313 0 13.726563 6.15625 13.726563 13.726562v33.710938c0 7.570312-6.15625 13.726562-13.726563 13.726562h-33.710937c-7.570313 0-13.726563-6.15625-13.726563-13.726562zm0 0"/><path d="m428.789062 334.710938c-8.980468 0-17.273437 2.996093-23.9375 8.03125-6.847656-5.15625-15.25-8.03125-23.9375-8.03125-21.9375 0-39.78125 17.847656-39.78125 39.78125 0 21.933593 17.847657 39.78125 39.78125 39.78125 8.6875 0 17.089844-2.875 23.9375-8.03125 6.664063 5.035156 14.957032 8.03125 23.9375 8.03125 21.933594 0 39.78125-17.847657 39.78125-39.78125-.003906-21.933594-17.847656-39.78125-39.78125-39.78125zm-72.65625 39.78125c0-13.664063 11.117188-24.78125 24.78125-24.78125 4.960938 0 9.769532 1.507812 13.824219 4.230468-3.636719 6.003906-5.730469 13.035156-5.730469 20.550782 0 7.511718 2.097657 14.546874 5.730469 20.550781-4.054687 2.722656-8.863281 4.230469-13.824219 4.230469-13.664062 0-24.78125-11.117188-24.78125-24.78125zm72.65625 24.78125c-13.664062 0-24.78125-11.117188-24.78125-24.78125 0-13.664063 11.117188-24.78125 24.78125-24.78125 13.664063 0 24.777344 11.117187 24.777344 24.78125 0 13.664062-11.113281 24.78125-24.777344 24.78125zm0 0"/><path d="m292.335938 314.304688h-137.820313c-12.40625 0-22.5 10.09375-22.5 22.5s10.09375 22.5 22.5 22.5h137.820313c12.40625 0 22.5-10.09375 22.5-22.5s-10.09375-22.5-22.5-22.5zm0 30h-137.820313c-4.136719 0-7.5-3.363282-7.5-7.5 0-4.136719 3.363281-7.5 7.5-7.5h137.820313c4.136718 0 7.5 3.363281 7.5 7.5 0 4.136718-3.363282 7.5-7.5 7.5zm0 0"/><path d="m239.457031 373.667969h-84.941406c-12.40625 0-22.5 10.09375-22.5 22.5s10.09375 22.5 22.5 22.5h52.195313c4.144531 0 7.5-3.355469 7.5-7.5 0-4.140625-3.355469-7.5-7.5-7.5h-52.195313c-4.136719 0-7.5-3.363281-7.5-7.5s3.363281-7.5 7.5-7.5h84.941406c4.136719 0 7.5 3.363281 7.5 7.5s-3.363281 7.5-7.5 7.5c-4.144531 0-7.5 3.359375-7.5 7.5 0 4.144531 3.355469 7.5 7.5 7.5 12.40625 0 22.5-10.09375 22.5-22.5s-10.09375-22.5-22.5-22.5zm0 0"/></svg>